<svg id="Capa_1" enable-background="new 0 0 511.998 511.998" height="15" viewBox="0 0 511.998 511.998" width="15" xmlns="http://www.w3.org/2000/svg"><g><path d="m256.017 160.998c42.917 0 85.115 37.705 93.494 80h153.684c-80.743-80.096-28.101-27.52-236.556-236.591-5.859-5.877-15.374-5.871-21.229-.016l-236.606 236.607h153.719c8.379-42.295 50.577-80 93.494-80z"/><path d="m193.389 240.998h125.256c-8.161-26.33-36.04-50-62.628-50s-54.467 23.671-62.628 50z"/><path d="m240.386 361.275c-28.606 8.298-49.369 40.956-49.369 77.652v73.072h130v-73c0-48.328-36.845-90.429-80.631-77.724z"/><path d="m65.017 483.998c0 15.177 12.364 28 27 28h69c0-78.456-.331-78.265.999-89h-96.999z"/><path d="m65.017 392.998h104.56c11.588-29.551 34.117-52.317 62.452-60.536 47.781-13.862 92.124 15.05 110.284 60.536h104.704v-122h-382z"/><path d="m351.017 511.998h69c14.636 0 27-12.823 27-28v-61h-97c1.335 10.592 1 9.101 1 89z"/></g></svg>